<?xml version="1.0" standalone="no"?>
<!DOCTYPE svg PUBLIC "-//W3C//DTD SVG 20010904//EN"
 "http://www.w3.org/TR/2001/REC-SVG-20010904/DTD/svg10.dtd">
<svg version="1.0" xmlns="http://www.w3.org/2000/svg"
 width="48.000000pt" height="48.000000pt" viewBox="0 0 48.000000 48.000000"
 preserveAspectRatio="xMidYMid meet">

<g transform="translate(0.000000,48.000000) scale(0.100000,-0.100000)"
fill="#000000" stroke="none">
<path d="M50 240 l0 -180 189 0 c105 0 192 3 194 8 2 4 2 85 -1 180 l-5 172
-188 0 -189 0 0 -180z m306 0 c35 -90 64 -166 64 -168 0 -2 -18 -2 -41 0 -39
3 -41 5 -68 68 -16 36 -37 85 -48 110 l-20 45 -37 -79 c-20 -43 -36 -80 -36
-82 0 -2 16 -4 35 -4 24 0 37 -6 45 -19 20 -38 13 -41 -91 -41 -55 0 -99 4
-97 9 2 4 32 81 68 170 l65 162 49 -3 48 -3 64 -165z"/>
</g>
</svg>
